#!OML:ASF I:\Actors\actors\Patient Classification 1\Patient 1\Session 1\Subject1.ASF
:FULLY-SPECIFIED
:DEGREES
1161
root -0.243285 17.609 7.68088 6.82244 5.51124 -12.1239
lowerback 6.28284 2.22954 6.02647
upperback 1.25131 3.39846 1.4478
thorax -1.96375 1.6648 -2.13838
lowerneck -11.1249 -4.13683 -0.205975
upperneck 13.3409 -6.90898 8.66429
head 6.21058 -2.69051 2.17878
rclavicle -1.98785e-016 1.19271e-014
rhumerus 12.344 34.8302 -79.8833
rradius 125.772
rwrist -2.58581
rhand -10.2583 -56.3867
rfingers 7.12502
rthumb 15.7349 -1525.77
lclavicle -1.98785e-016 1.19271e-014
lhumerus 1.05103 -40.0475 99.0945
lradius 125.058
lwrist 32.318
lhand -48.8428 -36.8152
lfingers 7.12502
lthumb -21.4781 352.014
rfemur -8.86262 11.1 29.0577
rtibia 10.8827
rfoot -14.3534 -18.4898
rtoes 0.993057
lfemur -4.68739 -33.6855 -0.452632
ltibia -0.139427
lfoot -7.98364 39.0448
ltoes -7.28883
1162
root -0.252866 17.6116 7.67748 7.0099 5.08881 -11.837
lowerback 6.28978 2.41934 5.76858
upperback 1.21093 3.63388 1.36388
thorax -2.00132 1.78138 -2.09936
lowerneck -10.376 -4.15121 -0.130859
upperneck 12.625 -6.82539 8.45869
head 5.84055 -2.70926 2.12459
rclavicle 1.19271e-014 -5.00937e-014
rhumerus 10.1587 35.1221 -84.5341
rradius 125.416
rwrist 0.338178
rhand -12.0121 -55.3033
rfingers 7.12502
rthumb 14.0453 -1524.81
lclavicle 1.19271e-014 -5.00937e-014
lhumerus 1.18189 -40.6993 98.6875
lradius 124.647
lwrist 30.8585
lhand -48.1811 -31.579
lfingers 7.12502
lthumb -20.8425 357.321
rfemur -9.16045 11.3867 28.7057
rtibia 11.0487
rfoot -14.3023 -18.3974
rtoes 0.936253
lfemur -4.7351 -33.6311 -0.706171
ltibia -0.110025
lfoot -8.25345 39.3399
ltoes -6.72885
1163
root -0.261329 17.6158 7.67303 7.18865 4.74484 -11.5373
lowerback 6.27378 2.62863 5.54321
upperback 1.21006 3.89257 1.23461
thorax -1.97933 1.91178 -2.12403
lowerneck -9.67145 -4.22222 -0.0328318
upperneck 11.9562 -6.85279 8.41492
head 5.50658 -2.76478 2.10847
rclavicle 1.41137e-014 -1.59028e-015
rhumerus 8.81859 34.8833 -88.2075
rradius 125.407
rwrist -1.32833
rhand -11.9354 -56.4542
rfingers 7.12502
rthumb 14.1192 -1525.95
lclavicle 1.41137e-014 -1.59028e-015
lhumerus 1.55962 -40.7948 98.3736
lradius 124.444
lwrist 31.4527
lhand -45.9799 -24.0918
lfingers 7.12502
lthumb -18.7264 365.027
rfemur -9.40884 11.6209 28.3301
rtibia 11.1226
rfoot -14.2553 -18.3264
rtoes 0.933915
lfemur -4.81032 -33.6266 -0.969948
ltibia -0.0855917
lfoot -8.47021 39.6177
ltoes -6.29646
1164
root -0.260074 17.6139 7.66342 7.1535 4.64168 -11.8127
lowerback 6.44846 2.79239 6.04699
upperback 1.28854 4.15281 1.25583
thorax -1.94115 2.04095 -2.4053
lowerneck -9.13529 -4.35107 0.150994
upperneck 11.3318 -6.975 8.34733
head 5.21778 -2.85818 2.06167
rclavicle -2.26615e-014 -5.56597e-015
rhumerus 8.60865 34.4937 -90.1543
rradius 125.597
rwrist -6.51899
rhand -12.3223 -60.8798
rfingers 7.12502
rthumb 13.7464 -1349.59
lclavicle -2.26615e-014 -5.56597e-015
lhumerus 1.93771 -40.4052 98.3013
lradius 124.74
lwrist 34.9306
lhand -45.4515 -17.4382
lfingers 7.12502
lthumb -18.2181 371.729
rfemur -9.39541 11.5099 28.6443
rtibia 11.0947
rfoot -14.2245 -18.0695
rtoes 0.935455
lfemur -4.79053 -33.4097 -0.662709
ltibia -0.0638212
lfoot -8.43053 39.5415
ltoes -6.39991
1165
root -0.256545 17.613 7.65266 7.14039 4.69784 -12.068
lowerback 6.82217 2.94298 6.59229
upperback 1.21127 4.42326 1.24272
thorax -2.16429 2.16322 -2.76418
lowerneck -8.42385 -4.55782 0.305526
upperneck 10.6845 -7.20407 8.39743
head 4.90355 -3.00351 2.05411
rclavicle 1.25234e-014 3.18055e-014
rhumerus 6.94588 32.8675 -93.4036
rradius 126.203
rwrist -12.2224
rhand -11.7763 -64.3753
rfingers 7.12502
rthumb 14.2726 -1346.14
lclavicle 1.25234e-014 3.18055e-014
lhumerus 2.16036 -39.8975 98.3846
lradius 125.187
lwrist 40.7299
lhand -48.9765 -10.7649
lfingers 7.12502
lthumb -21.6065 378.05
rfemur -9.36828 11.3755 28.9193
rtibia 10.9894
rfoot -14.2072 -17.9196
rtoes 1.22852
lfemur -4.93064 -33.1341 -0.322511
ltibia 0.0332181
lfoot -8.36561 39.2935
ltoes -6.54079
1166
root -0.253941 17.6167 7.64407 7.23403 4.83872 -11.9942
lowerback 6.73914 2.89587 6.5417
upperback 1.23807 4.35038 1.29209
thorax -2.10469 2.12998 -2.67411
lowerneck -7.2404 -4.56016 0.310739
upperneck 9.76224 -7.10364 8.50923
head 4.41975 -3.01412 2.12767
rclavicle 1.49089e-014 1.19271e-014
rhumerus 6.83142 32.5429 -94.4345
rradius 126.756
rwrist -18.9596
rhand -11.4223 -68.8414
rfingers 7.12502
rthumb 14.6137 -1341.69
lclavicle 1.49089e-014 1.19271e-014
lhumerus 2.72658 -38.7269 98.1845
lradius 125.418
lwrist 46.6641
lhand -51.5938 -8.50344
lfingers 7.12502
lthumb -24.1181 380.001
rfemur -9.43327 11.3539 28.7903
rtibia 10.8584
rfoot -14.1717 -18.0065
rtoes 1.53392
lfemur -5.24093 -33.0236 -0.29106
ltibia 0.178719
lfoot -8.3452 39.1088
ltoes -6.55736
1167
root -0.24964 17.6207 7.6376 7.28953 5.06797 -11.9556
lowerback 6.35094 2.75813 6.29414
upperback 1.37793 4.11986 1.5771
thorax -1.80331 2.02957 -2.20007
lowerneck -5.62885 -4.49394 -0.104266
upperneck 8.27718 -6.80344 8.46677
head 4.09387 -2.99496 2.50724
rclavicle 3.93594e-014 1.90833e-014
rhumerus 6.8776 32.5017 -94.7788
rradius 127.692
rwrist -26.2202
rhand -15.3251 -67.7803
rfingers 7.12502
rthumb 10.8512 -1342.52
lclavicle 3.93594e-014 1.90833e-014
lhumerus 3.15983 -37.4229 98.2467
lradius 125.112
lwrist 50.5818
lhand -54.2866 -13.7093
lfingers 7.12502
lthumb -26.6976 374.428
rfemur -9.45233 11.2638 28.7105
rtibia 10.7327
rfoot -14.1403 -18.1114
rtoes 1.4054
lfemur -5.51292 -33.0332 -0.239149
ltibia 0.277913
lfoot -8.23197 38.941
ltoes -6.68761
